<?xml version="1.0" encoding="UTF-8" standalone="no"?>
<!DOCTYPE svg PUBLIC "-//W3C//DTD SVG 1.1//EN" "http://www.w3.org/Graphics/SVG/1.1/DTD/svg11.dtd">
<!-- Created with Vectornator (http://vectornator.io/) -->
<svg height="100%" stroke-miterlimit="10" style="fill-rule:nonzero;clip-rule:evenodd;stroke-linecap:round;stroke-linejoin:round;" version="1.1" viewBox="0 0 540.497 160" width="100%" xml:space="preserve" xmlns="http://www.w3.org/2000/svg" xmlns:vectornator="http://vectornator.io" xmlns:xlink="http://www.w3.org/1999/xlink">
<defs>
<path d="M8.88178e-15 20C8.88178e-15 8.95431 8.95431 0 20 0L520 0C531.046 0 540 8.95431 540 20L540 140C540 151.046 531.046 160 520 160L20 160C8.95431 160 1.43885e-13 151.046 1.29674e-13 140L8.88178e-15 20Z" id="Fill"/>
</defs>
<g id="Senza-Titolo" vectornator:layerName="Senza Titolo">
<g opacity="1" vectornator:layerName="g">
<path d="M120.577 76.7335C120.461 63.838 131.139 57.5643 131.627 57.2722C125.58 48.4578 116.207 47.2534 112.913 47.1574C105.041 46.3292 97.4046 51.8667 93.3944 51.8667C89.3042 51.8667 83.1289 47.2374 76.4733 47.3735C67.9087 47.5055 59.8963 52.4629 55.502 60.161C46.4331 75.8573 53.1967 98.9236 61.8854 111.611C66.2317 117.829 71.3105 124.763 77.9581 124.519C84.4616 124.255 86.8909 120.378 94.7391 120.378C102.515 120.378 104.797 124.519 111.576 124.363C118.556 124.255 122.95 118.121 127.145 111.851C132.167 104.733 134.184 97.7153 134.264 97.3552C134.104 97.2992 120.713 92.1858 120.577 76.7335ZM107.77 38.8111C111.268 34.4379 113.661 28.4883 112.997 22.4506C107.934 22.6747 101.603 25.9516 97.9569 30.2288C94.7311 33.9978 91.8496 40.1755 92.594 45.9851C98.281 46.4092 104.12 43.1163 107.77 38.8111Z" fill="#ffffff" fill-rule="nonzero" opacity="1" stroke="none" vectornator:layerName="path"/>
<path d="M214.776 123.626L205.687 123.626L200.708 107.986L183.403 107.986L178.66 123.626L169.812 123.626L186.961 70.3798L197.551 70.3798C197.551 70.3798 214.776 123.626 214.776 123.626ZM199.208 101.424L194.705 87.5205C194.229 86.1001 193.332 82.7552 192.02 77.4898L191.86 77.4898C191.331 79.7544 190.487 83.0993 189.33 87.5205L184.904 101.424L199.208 101.424ZM258.792 103.957C258.792 110.487 257.019 115.648 253.469 119.437C250.291 122.81 246.341 124.495 241.63 124.495C236.544 124.495 232.886 122.682 230.664 119.049L230.664 139.195L222.132 139.195L222.132 97.8514C222.132 93.7502 222.024 89.5451 221.816 85.2319L229.32 85.2319L229.796 91.3176L229.956 91.3176C232.802 86.7323 237.12 84.4397 242.915 84.4397C247.446 84.4397 251.228 86.2282 254.253 89.8091C257.275 93.3981 258.792 98.1114 258.792 103.957ZM250.099 104.269C250.099 100.532 249.259 97.4512 247.57 95.0226C245.725 92.4979 243.247 91.2335 240.142 91.2335C238.036 91.2335 236.123 91.9377 234.415 93.3261C232.702 94.7265 231.581 96.555 231.057 98.8196C230.823 99.6665 230.69 100.538 230.66 101.416L230.66 107.822C230.66 110.611 231.517 112.968 233.23 114.896C234.943 116.817 237.168 117.781 239.905 117.781C243.119 117.781 245.621 116.536 247.41 114.068C249.203 111.591 250.099 108.326 250.099 104.269ZM302.964 103.957C302.964 110.487 301.191 115.648 297.641 119.437C294.459 122.81 290.513 124.495 285.798 124.495C280.712 124.495 277.054 122.682 274.832 119.049L274.832 139.195L266.3 139.195L266.3 97.8514C266.3 93.7502 266.192 89.5451 265.984 85.2319L273.488 85.2319L273.964 91.3176L274.124 91.3176C276.965 86.7323 281.284 84.4397 287.083 84.4397C291.609 84.4397 295.391 86.2282 298.425 89.8091C301.443 93.3981 302.964 98.1114 302.964 103.957ZM294.267 104.269C294.267 100.532 293.422 97.4512 291.733 95.0226C289.888 92.4979 287.419 91.2335 284.313 91.2335C282.208 91.2335 280.295 91.9377 278.578 93.3261C276.865 94.7265 275.749 96.555 275.225 98.8196C274.964 99.8759 274.824 100.736 274.824 101.416L274.824 107.822C274.824 110.611 275.685 112.968 277.39 114.896C279.103 116.813 281.328 117.781 284.073 117.781C287.291 117.781 289.792 116.536 291.577 114.068C293.37 111.591 294.267 108.326 294.267 104.269ZM352.35 108.69C352.35 113.224 350.765 116.909 347.616 119.753C344.15 122.858 339.311 124.415 333.108 124.415C327.377 124.415 322.782 123.31 319.316 121.098L321.289 113.988C325.031 116.204 329.142 117.309 333.616 117.309C336.834 117.309 339.335 116.58 341.12 115.136C342.909 113.688 343.814 111.751 343.814 109.335C343.814 107.17 343.065 105.357 341.596 103.881C340.12 102.409 337.678 101.036 334.248 99.7759C324.923 96.2989 320.257 91.2135 320.257 84.5237C320.257 80.1545 321.906 76.5775 325.196 73.7807C328.485 70.988 332.848 69.5916 338.275 69.5916C343.121 69.5916 347.159 70.4358 350.365 72.1203L348.224 79.0742C345.206 77.4417 341.8 76.6255 337.99 76.6255C334.981 76.6255 332.62 77.3657 330.931 78.8381C329.51 80.1545 328.789 81.7589 328.789 83.6634C328.789 85.764 329.61 87.5085 331.243 88.8769C332.66 90.1372 335.245 91.5096 338.983 92.982C343.569 94.8305 346.939 96.9831 349.096 99.4558C351.27 101.928 352.35 105.013 352.35 108.69ZM380.633 91.6336L371.228 91.6336L371.228 110.275C371.228 115.016 372.885 117.381 376.207 117.381C377.732 117.381 378.997 117.253 379.997 116.985L380.233 123.462C378.552 124.091 376.339 124.407 373.598 124.407C370.228 124.407 367.594 123.378 365.693 121.322C363.8 119.265 362.848 115.82 362.848 110.971L362.848 91.6176L357.245 91.6176L357.245 85.2159L362.848 85.2159L362.848 78.1859L371.228 75.6572L371.228 85.2159L380.633 85.2159C380.633 85.2159 380.633 91.6336 380.633 91.6336ZM422.984 104.113C422.984 110.015 421.295 114.86 417.926 118.649C414.4 122.55 409.709 124.495 403.862 124.495C398.219 124.495 393.733 122.626 390.387 118.893C387.041 115.152 385.368 110.439 385.368 104.753C385.368 98.8036 387.097 93.9303 390.543 90.1412C393.997 86.3482 398.647 84.4517 404.494 84.4517C410.129 84.4517 414.656 86.3242 418.082 90.0612C421.355 93.6862 422.984 98.3675 422.984 104.113ZM414.14 104.309C414.14 100.792 413.379 97.7753 411.854 95.2506C410.065 92.2018 407.504 90.6774 404.186 90.6774C400.768 90.6774 398.147 92.2018 396.362 95.2506C394.833 97.7753 394.073 100.844 394.073 104.469C394.073 107.99 394.833 111.015 396.362 113.532C398.207 116.58 400.78 118.105 404.114 118.105C407.376 118.105 409.933 116.548 411.782 113.456C413.351 110.871 414.14 107.834 414.14 104.309ZM450.731 92.7339C449.844 92.5738 448.944 92.4948 448.042 92.4979C445.04 92.4979 442.719 93.6262 441.086 95.8988C439.669 97.8994 438.957 100.428 438.957 103.481L438.957 123.626L430.424 123.626L430.424 97.3232C430.432 93.2927 430.349 89.2626 430.176 85.2359L437.608 85.2359L437.92 92.5819L438.156 92.5819C439.061 90.0572 440.478 88.0206 442.423 86.4962C444.203 85.1642 446.366 84.4428 448.59 84.4397C449.379 84.4397 450.091 84.4957 450.723 84.5957L450.731 92.7339ZM488.892 102.613C488.914 103.909 488.809 105.205 488.58 106.482L462.982 106.482C463.078 110.275 464.319 113.18 466.696 115.18C468.853 116.965 471.643 117.861 475.068 117.861C478.858 117.861 482.316 117.261 485.426 116.048L486.763 121.966C483.129 123.55 478.838 124.339 473.888 124.339C467.933 124.339 463.258 122.586 459.856 119.089C456.462 115.588 454.761 110.883 454.761 104.989C454.761 99.2037 456.342 94.3824 459.508 90.5373C462.822 86.4322 467.3 84.3796 472.935 84.3796C478.47 84.3796 482.661 86.4322 485.506 90.5373C487.759 93.7902 488.892 97.8233 488.892 102.613ZM480.755 100.4C480.816 97.8674 480.255 95.6868 479.099 93.8422C477.622 91.4656 475.349 90.2813 472.303 90.2813C469.513 90.2813 467.24 91.4376 465.511 93.7582C464.09 95.6027 463.246 97.8193 462.986 100.392L480.755 100.4Z" fill="#ffffff" fill-rule="nonzero" opacity="1" stroke="none" vectornator:layerName="path"/>
<path d="M180.942 51.5546C178.568 51.5546 176.515 51.4386 174.806 51.2425L174.806 25.4995C177.196 25.1303 179.612 24.9484 182.03 24.9553C191.816 24.9553 196.322 29.7686 196.322 37.6148C196.322 46.6653 190.999 51.5546 180.942 51.5546ZM182.374 28.2562C181.054 28.2562 179.929 28.3362 178.997 28.5283L178.997 48.0977C179.501 48.1777 180.469 48.2137 181.83 48.2137C188.242 48.2137 191.892 44.5647 191.892 37.7308C191.892 31.6371 188.59 28.2562 182.374 28.2562ZM210.366 51.7507C204.851 51.7507 201.277 47.6335 201.277 42.044C201.277 36.2184 204.927 32.0653 210.678 32.0653C216.113 32.0653 219.767 35.9863 219.767 41.7359C219.767 47.6335 216.001 51.7507 210.366 51.7507ZM210.526 35.1301C207.496 35.1301 205.555 37.9629 205.555 41.924C205.555 45.809 207.536 48.6418 210.486 48.6418C213.435 48.6418 215.416 45.613 215.416 41.844C215.416 38.0029 213.475 35.1301 210.526 35.1301ZM251.216 32.4534L245.312 51.3226L241.466 51.3226L239.021 43.1283C238.413 41.1239 237.907 39.0901 237.504 37.0346L237.424 37.0346C237.116 39.0912 236.532 41.1518 235.911 43.1283L233.31 51.3226L229.424 51.3226L223.869 32.4534L228.179 32.4534L230.316 41.4238C230.821 43.5604 231.245 45.577 231.597 47.4815L231.677 47.4815C231.985 45.8931 232.489 43.9085 233.23 41.4638L235.911 32.4574L239.329 32.4574L241.895 41.2718C242.515 43.4084 243.019 45.505 243.411 47.4855L243.523 47.4855C243.796 45.545 244.224 43.4844 244.804 41.2718L247.097 32.4574C247.097 32.4574 251.216 32.4534 251.216 32.4534ZM272.947 51.3226L268.753 51.3226L268.753 40.4876C268.753 37.1507 267.472 35.4782 264.947 35.4782C262.462 35.4782 260.753 37.6148 260.753 40.0995L260.753 51.3226L256.558 51.3226L256.558 37.8469C256.558 36.1784 256.518 34.3899 256.402 32.4494L260.092 32.4494L260.288 35.3622L260.405 35.3622C261.533 33.3456 263.822 32.0653 266.388 32.0653C270.35 32.0653 272.951 35.0941 272.951 40.0235L272.947 51.3226ZM284.514 51.3226L280.315 51.3226L280.315 23.795L284.514 23.795L284.514 51.3226ZM299.806 51.7507C294.295 51.7507 290.717 47.6335 290.717 42.044C290.717 36.2184 294.367 32.0653 300.114 32.0653C305.553 32.0653 309.203 35.9863 309.203 41.7359C309.207 47.6335 305.437 51.7507 299.806 51.7507ZM299.962 35.1301C296.932 35.1301 294.991 37.9629 294.991 41.924C294.991 45.809 296.976 48.6418 299.918 48.6418C302.871 48.6418 304.849 45.613 304.849 41.844C304.853 38.0029 302.915 35.1301 299.962 35.1301ZM325.74 51.3226L325.436 49.15L325.324 49.15C324.043 50.8984 322.174 51.7507 319.805 51.7507C316.423 51.7507 314.021 49.382 314.021 46.1971C314.021 41.5399 318.06 39.1312 325.051 39.1312L325.051 38.7831C325.051 36.2984 323.735 35.0541 321.133 35.0541C319.272 35.0541 317.639 35.5222 316.203 36.4545L315.35 33.6977C317.095 32.6094 319.272 32.0653 321.83 32.0653C326.76 32.0653 329.25 34.666 329.25 39.8714L329.25 46.8213C329.25 48.7258 329.334 50.2022 329.522 51.3266L325.74 51.3226ZM325.163 41.924C320.505 41.924 318.168 43.0523 318.168 45.729C318.168 47.7096 319.372 48.6778 321.045 48.6778C323.178 48.6778 325.163 47.0494 325.163 44.8368L325.163 41.924ZM349.617 51.3226L349.421 48.2937L349.305 48.2937C348.1 50.5824 346.075 51.7507 343.245 51.7507C338.695 51.7507 335.325 47.7496 335.325 42.12C335.325 36.2184 338.819 32.0613 343.589 32.0613C346.115 32.0613 347.904 32.9135 348.912 34.626L348.996 34.626L348.996 23.795L353.195 23.795L353.195 46.2372C353.195 48.0617 353.239 49.7701 353.351 51.3226L349.617 51.3226ZM348.996 40.2195C348.996 37.5788 347.247 35.3262 344.578 35.3262C341.468 35.3262 339.567 38.0829 339.567 41.964C339.567 45.769 341.54 48.3737 344.494 48.3737C347.131 48.3737 348.996 46.0811 348.996 43.3644L348.996 40.2195ZM379.813 51.7507C374.302 51.7507 370.728 47.6335 370.728 42.044C370.728 36.2184 374.378 32.0653 380.125 32.0653C385.564 32.0653 389.214 35.9863 389.214 41.7359C389.218 47.6335 385.452 51.7507 379.813 51.7507ZM379.969 35.1301C376.943 35.1301 375.002 37.9629 375.002 41.924C375.002 45.809 376.983 48.6418 379.929 48.6418C382.883 48.6418 384.86 45.613 384.86 41.844C384.868 38.0029 382.927 35.1301 379.969 35.1301ZM411.77 51.3226L407.572 51.3226L407.572 40.4876C407.572 37.1507 406.291 35.4782 403.766 35.4782C401.281 35.4782 399.576 37.6148 399.576 40.0995L399.576 51.3226L395.377 51.3226L395.377 37.8469C395.377 36.1784 395.337 34.3899 395.221 32.4494L398.911 32.4494L399.107 35.3622L399.223 35.3622C400.348 33.3456 402.641 32.0613 405.203 32.0613C409.165 32.0613 411.77 35.0901 411.77 40.0194L411.77 51.3226ZM439.989 35.5982L435.375 35.5982L435.375 44.7608C435.375 47.0934 436.183 48.2577 437.816 48.2577C438.557 48.2577 439.177 48.1777 439.677 48.0617L439.793 51.2465C438.981 51.5586 437.892 51.7147 436.54 51.7147C433.234 51.7147 431.257 49.8902 431.257 45.1129L431.257 35.5982L428.503 35.5982L428.503 32.4534L431.257 32.4534L431.257 28.9964L435.375 27.7521L435.375 32.4494L439.989 32.4494L439.989 35.5982ZM462.193 51.3226L458.003 51.3226L458.003 40.5676C458.003 37.1907 456.727 35.4822 454.197 35.4822C452.024 35.4822 449.999 36.9586 449.999 39.9474L449.999 51.3226L445.809 51.3226L445.809 23.795L449.999 23.795L449.999 35.1301L450.083 35.1301C451.404 33.0735 453.317 32.0613 455.758 32.0613C459.752 32.0613 462.193 35.1661 462.193 40.0995C462.193 40.0995 462.193 51.3226 462.193 51.3226ZM484.942 42.8962L472.355 42.8962C472.435 46.4692 474.8 48.4858 478.302 48.4858C480.163 48.4858 481.876 48.1737 483.389 47.5935L484.041 50.5063C482.256 51.2825 480.155 51.6707 477.71 51.6707C471.807 51.6707 468.313 47.9416 468.313 42.16C468.313 36.3744 471.891 32.0253 477.238 32.0253C482.06 32.0253 485.086 35.5982 485.086 40.9957C485.113 41.6327 485.065 42.2706 484.942 42.8962ZM481.096 39.9074C481.096 36.9946 479.627 34.9381 476.945 34.9381C474.536 34.9381 472.631 37.0346 472.359 39.9074C472.359 39.9074 481.096 39.9074 481.096 39.9074Z" fill="#ffffff" fill-rule="nonzero" opacity="1" stroke="none" vectornator:layerName="path"/>
<g opacity="1" vectornator:layerName="Rettangolo 1">
<mask height="160" id="StrokeMask" maskUnits="userSpaceOnUse" width="540" x="6.28092e-16" y="0">
<rect fill="#000000" height="160" stroke="none" width="540" x="6.28092e-16" y="0"/>
<use fill="#ffffff" fill-rule="evenodd" stroke="none" xlink:href="#Fill"/>
</mask>
<use fill="none" mask="url(#StrokeMask)" stroke="#ffffff" stroke-linecap="butt" stroke-linejoin="round" stroke-width="10" xlink:href="#Fill"/>
</g>
</g>
</g>
</svg>
