<?xml version="1.0" encoding="UTF-8" standalone="no"?>
<!DOCTYPE svg PUBLIC "-//W3C//DTD SVG 1.1//EN" "http://www.w3.org/Graphics/SVG/1.1/DTD/svg11.dtd">
<!-- Created with Vectornator (http://vectornator.io/) -->
<svg height="100%" stroke-miterlimit="10" style="fill-rule:nonzero;clip-rule:evenodd;stroke-linecap:round;stroke-linejoin:round;" version="1.1" viewBox="0 0 540 160" width="100%" xml:space="preserve" xmlns="http://www.w3.org/2000/svg" xmlns:vectornator="http://vectornator.io" xmlns:xlink="http://www.w3.org/1999/xlink">
<defs>
<path d="M0 20C0 8.95431 8.95431 0 20 0L520 0C531.046 0 540 8.95431 540 20L540 140C540 151.046 531.046 160 520 160L20 160C8.95431 160 1.42109e-13 151.046 1.13687e-13 140L0 20Z" id="Fill"/>
<path d="M0 20C0 8.95431 8.95431 0 20 0L520 0C531.046 0 540 8.95431 540 20L540 140C540 151.046 531.046 160 520 160L20 160C8.95431 160 1.42109e-13 151.046 1.13687e-13 140L0 20Z" id="Fill_2"/>
</defs>
<clipPath id="ArtboardFrame">
<rect height="160" width="540" x="0" y="0"/>
</clipPath>
<g clip-path="url(#ArtboardFrame)" id="Senza-Titolo" vectornator:layerName="Senza Titolo">
<path d="M265.011 43.5421C265.011 46.8251 264.19 49.6976 262.138 51.7495C259.676 54.2117 256.803 55.4428 253.11 55.4428C249.417 55.4428 246.544 54.2117 244.082 51.7495C241.62 49.2873 240.389 46.4147 240.389 42.7214C240.389 39.0281 241.62 36.1555 244.082 33.6933C246.544 31.2311 249.417 30 253.11 30C254.752 30 256.393 30.4104 258.035 31.2311C259.676 32.0518 260.907 32.8726 261.728 34.1037L259.676 36.1555C258.035 34.1037 255.983 33.2829 253.11 33.2829C250.648 33.2829 248.186 34.1037 246.544 36.1555C244.492 37.797 243.672 40.2592 243.672 43.1317C243.672 46.0043 244.492 48.4665 246.544 50.108C248.596 51.7495 250.648 52.9806 253.11 52.9806C255.983 52.9806 258.035 52.1598 260.086 50.108C261.318 48.8769 262.138 47.2354 262.138 45.1836L253.11 45.1836L253.11 41.9006L265.011 41.9006C265.011 41.9006 265.011 43.5421 265.011 43.5421ZM283.888 33.2829L272.808 33.2829L272.808 41.0799L283.067 41.0799L283.067 43.9525L272.808 43.9525L272.808 51.7495L283.888 51.7495L283.888 55.0324L269.525 55.0324L269.525 30.4104L283.888 30.4104L283.888 33.2829ZM297.43 55.0324L294.147 55.0324L294.147 33.2829L287.171 33.2829L287.171 30.4104L304.406 30.4104L304.406 33.2829L297.43 33.2829L297.43 55.0324ZM316.307 55.0324L316.307 30.4104L319.59 30.4104L319.59 55.0324L316.307 55.0324ZM333.542 55.0324L330.259 55.0324L330.259 33.2829L323.283 33.2829L323.283 30.4104L340.108 30.4104L340.108 33.2829L333.132 33.2829L333.132 55.0324L333.542 55.0324ZM372.527 51.7495C370.065 54.2117 367.192 55.4428 363.499 55.4428C359.806 55.4428 356.933 54.2117 354.471 51.7495C352.009 49.2873 350.778 46.4147 350.778 42.7214C350.778 39.0281 352.009 36.1555 354.471 33.6933C356.933 31.2311 359.806 30 363.499 30C367.192 30 370.065 31.2311 372.527 33.6933C374.989 36.1555 376.22 39.0281 376.22 42.7214C376.22 46.4147 374.989 49.2873 372.527 51.7495ZM356.933 49.6976C358.575 51.3391 361.037 52.5702 363.499 52.5702C365.961 52.5702 368.423 51.7495 370.065 49.6976C371.706 48.0562 372.937 45.594 372.937 42.7214C372.937 39.8488 372.117 37.3866 370.065 35.7451C368.423 34.1037 365.961 32.8726 363.499 32.8726C361.037 32.8726 358.575 33.6933 356.933 35.7451C355.292 37.3866 354.06 39.8488 354.06 42.7214C354.06 45.594 354.881 48.0562 356.933 49.6976ZM380.734 55.0324L380.734 30.4104L384.428 30.4104L396.328 49.6976L396.328 30.4104L399.611 30.4104L399.611 55.0324L396.328 55.0324L383.607 34.9244L383.607 55.0324C383.607 55.0324 380.734 55.0324 380.734 55.0324Z" fill="#ffffff" fill-rule="nonzero" opacity="1" stroke="none" vectornator:layerName="path"/>
<path d="M275.745 86.678C267.234 86.678 260.496 93.0609 260.496 101.926C260.496 110.437 267.234 117.174 275.745 117.174C284.255 117.174 290.993 110.791 290.993 101.926C290.993 92.7063 284.255 86.678 275.745 86.678ZM275.745 110.791C271.135 110.791 267.234 106.891 267.234 101.572C267.234 96.2524 271.135 92.3517 275.745 92.3517C280.355 92.3517 284.255 95.8978 284.255 101.572C284.255 106.891 280.355 110.791 275.745 110.791ZM242.766 86.678C234.255 86.678 227.518 93.0609 227.518 101.926C227.518 110.437 234.255 117.174 242.766 117.174C251.277 117.174 258.014 110.791 258.014 101.926C258.014 92.7063 251.277 86.678 242.766 86.678ZM242.766 110.791C238.156 110.791 234.255 106.891 234.255 101.572C234.255 96.2524 238.156 92.3517 242.766 92.3517C247.376 92.3517 251.277 95.8978 251.277 101.572C251.277 106.891 247.376 110.791 242.766 110.791ZM203.404 91.2879L203.404 97.6709L218.652 97.6709C218.298 101.217 216.879 104.054 215.106 105.827C212.979 107.955 209.433 110.437 203.404 110.437C193.83 110.437 186.738 102.99 186.738 93.4155C186.738 83.8411 194.184 76.3943 203.404 76.3943C208.369 76.3943 212.27 78.5219 215.106 81.0042L219.716 76.3943C215.816 72.8482 210.851 70.0113 203.759 70.0113C190.993 70.0113 180 80.6496 180 93.4155C180 106.181 190.993 116.82 203.759 116.82C210.851 116.82 215.816 114.692 220.071 110.082C224.326 105.827 225.745 99.7985 225.745 95.1886C225.745 93.7702 225.745 92.3517 225.39 91.2879C225.39 91.2879 203.404 91.2879 203.404 91.2879ZM364.397 96.2524C362.979 92.7063 359.433 86.678 351.631 86.678C343.83 86.678 337.447 92.7063 337.447 101.926C337.447 110.437 343.83 117.174 352.34 117.174C359.078 117.174 363.333 112.919 364.752 110.437L359.787 106.891C358.014 109.373 355.887 111.146 352.34 111.146C348.794 111.146 346.667 109.728 344.894 106.536L365.106 98.0255L364.397 96.2524ZM343.83 101.217C343.83 95.5432 348.44 92.3517 351.631 92.3517C354.113 92.3517 356.596 93.7702 357.305 95.5432L343.83 101.217ZM327.163 115.756L333.901 115.756L333.901 71.4297L327.163 71.4297L327.163 115.756ZM316.525 89.8694C314.752 88.0964 311.915 86.3233 308.369 86.3233C300.922 86.3233 293.83 93.0609 293.83 101.572C293.83 110.082 300.567 116.465 308.369 116.465C311.915 116.465 314.752 114.692 316.17 112.919L316.525 112.919L316.525 115.047C316.525 120.721 313.333 123.912 308.369 123.912C304.468 123.912 301.631 121.075 300.922 118.593L295.248 121.075C297.021 124.976 301.277 129.94 308.723 129.94C316.525 129.94 322.908 125.33 322.908 114.338L322.908 87.3872L316.525 87.3872L316.525 89.8694ZM308.723 110.791C304.113 110.791 300.213 106.891 300.213 101.572C300.213 96.2524 304.113 92.3517 308.723 92.3517C313.333 92.3517 316.879 96.2524 316.879 101.572C316.879 106.891 313.333 110.791 308.723 110.791ZM395.248 71.4297L379.291 71.4297L379.291 115.756L386.028 115.756L386.028 99.0893L395.248 99.0893C402.695 99.0893 409.787 93.7702 409.787 85.2595C409.787 76.7489 402.695 71.4297 395.248 71.4297ZM395.603 92.7063L386.028 92.7063L386.028 77.4581L395.603 77.4581C400.567 77.4581 403.404 81.7134 403.404 84.9049C403.05 88.8056 400.213 92.7063 395.603 92.7063ZM436.383 86.3233C431.418 86.3233 426.454 88.451 424.681 93.0609L430.709 95.5432C432.128 93.0609 434.255 92.3517 436.738 92.3517C440.284 92.3517 443.475 94.4794 443.83 98.0255L443.83 98.3801C442.766 97.6709 439.929 96.607 437.092 96.607C430.709 96.607 424.326 100.153 424.326 106.536C424.326 112.564 429.645 116.465 435.319 116.465C439.929 116.465 442.057 114.338 443.83 112.21L444.184 112.21L444.184 115.756L450.567 115.756L450.567 98.7347C449.858 90.9333 443.83 86.3233 436.383 86.3233ZM435.674 110.791C433.546 110.791 430.355 109.728 430.355 106.891C430.355 103.345 434.255 102.281 437.447 102.281C440.284 102.281 441.702 102.99 443.475 103.699C442.766 107.955 439.22 110.791 435.674 110.791ZM472.908 87.3872L465.461 106.536L465.106 106.536L457.305 87.3872L450.213 87.3872L461.915 114.338L455.177 129.231L461.915 129.231L480 87.3872L472.908 87.3872ZM413.333 115.756L420.071 115.756L420.071 71.4297L413.333 71.4297L413.333 115.756Z" fill="#ffffff" fill-rule="nonzero" opacity="1" stroke="none" vectornator:layerName="path"/>
<g opacity="1" vectornator:layerName="path 1">
<g opacity="1" vectornator:layerName="path">
<mask height="160" id="StrokeMask" maskUnits="userSpaceOnUse" width="540" x="0" y="0">
<rect fill="#000000" height="160" stroke="none" width="540" x="0" y="0"/>
<use fill="#ffffff" fill-rule="evenodd" stroke="none" xlink:href="#Fill"/>
</mask>
<use fill="none" mask="url(#StrokeMask)" stroke="#ffffff" stroke-linecap="butt" stroke-linejoin="round" stroke-width="10" xlink:href="#Fill"/>
</g>
<clipPath clip-rule="evenodd" id="ClipPath">
<use xlink:href="#Fill"/>
</clipPath>
<g clip-path="url(#ClipPath)">
<g opacity="1" vectornator:layerName="path">
<mask height="160" id="StrokeMask_2" maskUnits="userSpaceOnUse" width="540" x="0" y="0">
<rect fill="#000000" height="160" stroke="none" width="540" x="0" y="0"/>
<use fill="#ffffff" fill-rule="evenodd" stroke="none" xlink:href="#Fill_2"/>
</mask>
<use fill="none" mask="url(#StrokeMask_2)" stroke="#ffffff" stroke-linecap="butt" stroke-linejoin="round" stroke-width="10" xlink:href="#Fill_2"/>
</g>
</g>
</g>
<g opacity="1" vectornator:layerName="g 1">
<path d="M103.65-126.081C103.534-138.976 114.212-145.25 114.7-145.542C108.653-154.357 99.2799-155.561 95.9859-155.657C88.1139-156.485 80.4775-150.948 76.4673-150.948C72.3771-150.948 66.2018-155.577 59.5462-155.441C50.9816-155.309 42.9692-150.352 38.5749-142.653C29.506-126.957 36.2696-103.891 44.9583-91.2035C49.3046-84.9855 54.3834-78.0515 61.031-78.2955C67.5345-78.5595 69.9638-82.4365 77.812-82.4365C85.5879-82.4365 87.8699-78.2955 94.6489-78.4515C101.629-78.5595 106.023-84.6935 110.218-90.9635C115.24-98.0815 117.257-105.099 117.337-105.459C117.177-105.515 103.786-110.629 103.65-126.081ZM90.8429-164.003C94.3409-168.377 96.7339-174.326 96.0699-180.364C91.0069-180.14 84.6759-176.863 81.0298-172.586C77.804-168.817 74.9225-162.639 75.6669-156.829C81.3539-156.405 87.1929-159.698 90.8429-164.003Z" fill="#ffffff" fill-rule="nonzero" opacity="1" stroke="none" vectornator:layerName="path"/>
<path d="M197.849-79.1885L188.76-79.1885L183.781-94.8285L166.476-94.8285L161.733-79.1885L152.885-79.1885L170.034-132.435L180.624-132.435L197.849-79.1885ZM182.281-101.39L177.778-115.294C177.302-116.714 176.405-120.059 175.093-125.325L174.933-125.325C174.404-123.06 173.56-119.715 172.403-115.294L167.977-101.39L182.281-101.39ZM241.865-98.8575C241.865-92.3275 240.092-87.1665 236.542-83.3775C233.364-80.0045 229.414-78.3195 224.703-78.3195C219.617-78.3195 215.959-80.1325 213.737-83.7655L213.737-63.6195L205.205-63.6195L205.205-104.963C205.205-109.064 205.097-113.269 204.889-117.583L212.393-117.583L212.869-111.497L213.029-111.497C215.875-116.082 220.193-118.375 225.988-118.375C230.519-118.375 234.301-116.586 237.326-113.005C240.348-109.416 241.865-104.703 241.865-98.8575ZM233.172-98.5455C233.172-102.282 232.332-105.363 230.643-107.792C228.798-110.317 226.32-111.581 223.215-111.581C221.109-111.581 219.196-110.877 217.488-109.488C215.775-108.088 214.654-106.259 214.13-103.995C213.896-103.148 213.763-102.276 213.733-101.398L213.733-94.9925C213.733-92.2035 214.59-89.8465 216.303-87.9185C218.016-85.9975 220.241-85.0335 222.978-85.0335C226.192-85.0335 228.694-86.2785 230.483-88.7465C232.276-91.2235 233.172-94.4885 233.172-98.5455ZM286.037-98.8575C286.037-92.3275 284.264-87.1665 280.714-83.3775C277.532-80.0045 273.586-78.3195 268.871-78.3195C263.785-78.3195 260.127-80.1325 257.905-83.7655L257.905-63.6195L249.373-63.6195L249.373-104.963C249.373-109.064 249.265-113.269 249.057-117.583L256.561-117.583L257.037-111.497L257.197-111.497C260.038-116.082 264.357-118.375 270.156-118.375C274.682-118.375 278.464-116.586 281.498-113.005C284.516-109.416 286.037-104.703 286.037-98.8575ZM277.34-98.5455C277.34-102.282 276.495-105.363 274.806-107.792C272.961-110.317 270.492-111.581 267.386-111.581C265.281-111.581 263.368-110.877 261.651-109.488C259.938-108.088 258.822-106.259 258.298-103.995C258.037-102.939 257.897-102.078 257.897-101.398L257.897-94.9925C257.897-92.2035 258.758-89.8465 260.463-87.9185C262.176-86.0015 264.401-85.0335 267.146-85.0335C270.364-85.0335 272.865-86.2785 274.65-88.7465C276.443-91.2235 277.34-94.4885 277.34-98.5455ZM335.423-94.1245C335.423-89.5905 333.838-85.9055 330.689-83.0615C327.223-79.9565 322.384-78.3995 316.181-78.3995C310.45-78.3995 305.855-79.5045 302.389-81.7165L304.362-88.8265C308.104-86.6105 312.215-85.5055 316.689-85.5055C319.907-85.5055 322.408-86.2345 324.193-87.6785C325.982-89.1265 326.887-91.0635 326.887-93.4795C326.887-95.6445 326.138-97.4575 324.669-98.9335C323.193-100.405 320.751-101.778 317.321-103.039C307.996-106.516 303.33-111.601 303.33-118.291C303.33-122.66 304.979-126.237 308.269-129.034C311.558-131.826 315.921-133.223 321.348-133.223C326.194-133.223 330.232-132.379 333.438-130.694L331.297-123.74C328.279-125.373 324.873-126.189 321.063-126.189C318.054-126.189 315.693-125.449 314.004-123.976C312.583-122.66 311.862-121.056 311.862-119.151C311.862-117.05 312.683-115.306 314.316-113.938C315.733-112.677 318.318-111.305 322.056-109.832C326.642-107.984 330.012-105.831 332.169-103.359C334.343-100.886 335.423-97.8015 335.423-94.1245ZM363.706-111.181L354.301-111.181L354.301-92.5395C354.301-87.7985 355.958-85.4335 359.28-85.4335C360.805-85.4335 362.07-85.5615 363.07-85.8295L363.306-79.3525C361.625-78.7235 359.412-78.4075 356.671-78.4075C353.301-78.4075 350.667-79.4365 348.766-81.4925C346.873-83.5495 345.921-86.9945 345.921-91.8435L345.921-111.197L340.318-111.197L340.318-117.599L345.921-117.599L345.921-124.629L354.301-127.157L354.301-117.599L363.706-117.599L363.706-111.181ZM406.057-98.7015C406.057-92.7995 404.368-87.9545 400.999-84.1655C397.473-80.2645 392.782-78.3195 386.935-78.3195C381.292-78.3195 376.806-80.1885 373.46-83.9215C370.114-87.6625 368.441-92.3755 368.441-98.0615C368.441-104.011 370.17-108.884 373.616-112.673C377.07-116.466 381.72-118.363 387.567-118.363C393.202-118.363 397.729-116.49 401.155-112.753C404.428-109.128 406.057-104.447 406.057-98.7015ZM397.213-98.5055C397.213-102.022 396.452-105.039 394.927-107.564C393.138-110.613 390.577-112.137 387.259-112.137C383.841-112.137 381.22-110.613 379.435-107.564C377.906-105.039 377.146-101.97 377.146-98.3455C377.146-94.8245 377.906-91.7995 379.435-89.2825C381.28-86.2345 383.853-84.7095 387.187-84.7095C390.449-84.7095 393.006-86.2665 394.855-89.3585C396.424-91.9435 397.213-94.9805 397.213-98.5055ZM433.804-110.081C432.917-110.241 432.017-110.32 431.115-110.317C428.113-110.317 425.792-109.188 424.159-106.916C422.742-104.915 422.03-102.386 422.03-99.3335L422.03-79.1885L413.497-79.1885L413.497-105.491C413.505-109.522 413.422-113.552 413.249-117.579L420.681-117.579L420.993-110.233L421.229-110.233C422.134-112.757 423.551-114.794 425.496-116.318C427.276-117.65 429.439-118.372 431.663-118.375C432.452-118.375 433.164-118.319 433.796-118.219L433.804-110.081ZM471.965-100.201C471.987-98.9055 471.882-97.6095 471.653-96.3325L446.055-96.3325C446.151-92.5395 447.392-89.6345 449.769-87.6345C451.926-85.8495 454.716-84.9535 458.141-84.9535C461.931-84.9535 465.389-85.5535 468.499-86.7665L469.836-80.8485C466.202-79.2645 461.911-78.4755 456.961-78.4755C451.006-78.4755 446.331-80.2285 442.929-83.7255C439.535-87.2265 437.834-91.9315 437.834-97.8255C437.834-103.611 439.415-108.432 442.581-112.277C445.895-116.382 450.373-118.435 456.008-118.435C461.543-118.435 465.734-116.382 468.579-112.277C470.832-109.024 471.965-104.991 471.965-100.201ZM463.828-102.414C463.889-104.947 463.328-107.128 462.172-108.972C460.695-111.349 458.422-112.533 455.376-112.533C452.586-112.533 450.313-111.377 448.584-109.056C447.163-107.212 446.319-104.995 446.059-102.422L463.828-102.414Z" fill="#ffffff" fill-rule="nonzero" opacity="1" stroke="none" vectornator:layerName="path"/>
<path d="M164.015-151.26C161.641-151.26 159.588-151.376 157.879-151.572L157.879-177.315C160.269-177.684 162.685-177.866 165.103-177.859C174.889-177.859 179.395-173.046 179.395-165.2C179.395-156.149 174.072-151.26 164.015-151.26ZM165.447-174.558C164.127-174.558 163.002-174.478 162.07-174.286L162.07-154.717C162.574-154.637 163.542-154.601 164.903-154.601C171.315-154.601 174.965-158.25 174.965-165.084C174.965-171.177 171.663-174.558 165.447-174.558ZM193.439-151.064C187.924-151.064 184.35-155.181 184.35-160.77C184.35-166.596 188-170.749 193.751-170.749C199.186-170.749 202.84-166.828 202.84-161.079C202.84-155.181 199.074-151.064 193.439-151.064ZM193.599-167.684C190.569-167.684 188.628-164.852 188.628-160.89C188.628-157.005 190.609-154.173 193.559-154.173C196.508-154.173 198.489-157.201 198.489-160.97C198.489-164.812 196.548-167.684 193.599-167.684ZM234.289-170.361L228.385-151.492L224.539-151.492L222.094-159.686C221.486-161.691 220.98-163.724 220.577-165.78L220.497-165.78C220.189-163.723 219.605-161.663 218.984-159.686L216.383-151.492L212.497-151.492L206.942-170.361L211.252-170.361L213.389-161.391C213.894-159.254 214.318-157.237 214.67-155.333L214.75-155.333C215.058-156.921 215.562-158.906 216.303-161.351L218.984-170.357L222.402-170.357L224.968-161.543C225.588-159.406 226.092-157.309 226.484-155.329L226.596-155.329C226.869-157.269 227.297-159.33 227.877-161.543L230.17-170.357L234.289-170.361ZM256.02-151.492L251.826-151.492L251.826-162.327C251.826-165.664 250.545-167.336 248.02-167.336C245.535-167.336 243.826-165.2 243.826-162.715L243.826-151.492L239.631-151.492L239.631-164.968C239.631-166.636 239.591-168.425 239.475-170.365L243.165-170.365L243.361-167.452L243.478-167.452C244.606-169.469 246.895-170.749 249.461-170.749C253.423-170.749 256.024-167.72 256.024-162.791L256.02-151.492ZM267.587-151.492L263.388-151.492L263.388-179.019L267.587-179.019L267.587-151.492ZM282.879-151.064C277.368-151.064 273.79-155.181 273.79-160.77C273.79-166.596 277.44-170.749 283.187-170.749C288.626-170.749 292.276-166.828 292.276-161.079C292.28-155.181 288.51-151.064 282.879-151.064ZM283.035-167.684C280.005-167.684 278.064-164.852 278.064-160.89C278.064-157.005 280.049-154.173 282.991-154.173C285.944-154.173 287.922-157.201 287.922-160.97C287.926-164.812 285.988-167.684 283.035-167.684ZM308.813-151.492L308.509-153.664L308.397-153.664C307.116-151.916 305.247-151.064 302.878-151.064C299.496-151.064 297.094-153.432 297.094-156.617C297.094-161.275 301.133-163.683 308.124-163.683L308.124-164.031C308.124-166.516 306.808-167.76 304.206-167.76C302.345-167.76 300.712-167.292 299.276-166.36L298.423-169.117C300.168-170.205 302.345-170.749 304.903-170.749C309.833-170.749 312.323-168.148 312.323-162.943L312.323-155.993C312.323-154.089 312.407-152.612 312.595-151.488L308.813-151.492ZM308.236-160.89C303.578-160.89 301.241-159.762 301.241-157.085C301.241-155.105 302.445-154.137 304.118-154.137C306.251-154.137 308.236-155.765 308.236-157.978L308.236-160.89ZM332.69-151.492L332.494-154.521L332.378-154.521C331.173-152.232 329.148-151.064 326.318-151.064C321.768-151.064 318.398-155.065 318.398-160.694C318.398-166.596 321.892-170.753 326.662-170.753C329.188-170.753 330.977-169.901 331.985-168.188L332.069-168.188L332.069-179.019L336.268-179.019L336.268-156.577C336.268-154.753 336.312-153.044 336.424-151.492L332.69-151.492ZM332.069-162.595C332.069-165.236 330.32-167.488 327.651-167.488C324.541-167.488 322.64-164.732 322.64-160.85C322.64-157.045 324.613-154.441 327.567-154.441C330.204-154.441 332.069-156.733 332.069-159.45L332.069-162.595ZM362.886-151.064C357.375-151.064 353.801-155.181 353.801-160.77C353.801-166.596 357.451-170.749 363.198-170.749C368.637-170.749 372.287-166.828 372.287-161.079C372.291-155.181 368.525-151.064 362.886-151.064ZM363.042-167.684C360.016-167.684 358.075-164.852 358.075-160.89C358.075-157.005 360.056-154.173 363.002-154.173C365.956-154.173 367.933-157.201 367.933-160.97C367.941-164.812 366-167.684 363.042-167.684ZM394.843-151.492L390.645-151.492L390.645-162.327C390.645-165.664 389.364-167.336 386.839-167.336C384.354-167.336 382.649-165.2 382.649-162.715L382.649-151.492L378.45-151.492L378.45-164.968C378.45-166.636 378.41-168.425 378.294-170.365L381.984-170.365L382.18-167.452L382.296-167.452C383.421-169.469 385.714-170.753 388.276-170.753C392.238-170.753 394.843-167.724 394.843-162.795L394.843-151.492ZM423.062-167.216L418.448-167.216L418.448-158.054C418.448-155.721 419.256-154.557 420.889-154.557C421.63-154.557 422.25-154.637 422.75-154.753L422.866-151.568C422.054-151.256 420.965-151.1 419.613-151.1C416.307-151.1 414.33-152.924 414.33-157.702L414.33-167.216L411.576-167.216L411.576-170.361L414.33-170.361L414.33-173.818L418.448-175.062L418.448-170.365L423.062-170.365L423.062-167.216ZM445.266-151.492L441.076-151.492L441.076-162.247C441.076-165.624 439.8-167.332 437.27-167.332C435.097-167.332 433.072-165.856 433.072-162.867L433.072-151.492L428.882-151.492L428.882-179.019L433.072-179.019L433.072-167.684L433.156-167.684C434.477-169.741 436.39-170.753 438.831-170.753C442.825-170.753 445.266-167.648 445.266-162.715L445.266-151.492ZM468.015-159.918L455.428-159.918C455.508-156.345 457.873-154.329 461.375-154.329C463.236-154.329 464.949-154.641 466.462-155.221L467.114-152.308C465.329-151.532 463.228-151.144 460.783-151.144C454.88-151.144 451.386-154.873 451.386-160.654C451.386-166.44 454.964-170.789 460.311-170.789C465.133-170.789 468.159-167.216 468.159-161.819C468.186-161.182 468.138-160.544 468.015-159.918ZM464.169-162.907C464.169-165.82 462.7-167.876 460.018-167.876C457.609-167.876 455.704-165.78 455.432-162.907L464.169-162.907Z" fill="#ffffff" fill-rule="nonzero" opacity="1" stroke="none" vectornator:layerName="path"/>
<g opacity="1" vectornator:layerName="path">
<clipPath clip-rule="evenodd" id="ClipPath_2">
<path d="M-16.9271-182.814C-16.9271-193.86-7.97283-202.814 3.07286-202.814L503.073-202.814C514.119-202.814 523.073-193.86 523.073-182.814L523.073-62.8145C523.073-51.7685 514.119-42.8145 503.073-42.8145L3.07286-42.8145C-7.97283-42.8145-16.9271-51.7685-16.9271-62.8145L-16.9271-182.814Z"/>
</clipPath>
<g clip-path="url(#ClipPath_2)">
<path d="M-16.9271-182.814C-16.9271-193.86-7.97283-202.814 3.07286-202.814L503.073-202.814C514.119-202.814 523.073-193.86 523.073-182.814L523.073-62.8145C523.073-51.7685 514.119-42.8145 503.073-42.8145L3.07286-42.8145C-7.97283-42.8145-16.9271-51.7685-16.9271-62.8145L-16.9271-182.814Z" fill="none" opacity="1" stroke="#a6a6a6" stroke-linecap="butt" stroke-linejoin="round" stroke-width="10" vectornator:layerName="path"/>
</g>
</g>
</g>
<path d="M134.533 69.2151L67.9127 31.4462C66.2512 30.5003 63.8984 30 61.9519 30C55.6121 30 50 34.8177 50 40.7391L50 116.283C50 122.204 55.5757 127.022 61.8731 127.022C63.8074 127.022 65.9328 126.522 67.5883 125.579L134.612 87.8039C137.953 85.8998 140 82.4768 140 78.6504C140.003 74.715 137.993 71.1889 134.533 69.2151ZM66.4119 34.081L113.728 60.9076L99.2205 76.2977L59.0776 33.7172C60.1479 33.2836 61.2818 33.0319 62.4037 33.0319C63.8408 33.0319 65.19 33.3836 66.4119 34.081ZM53.0319 116.283L53.0319 40.7391C53.0319 38.5319 54.4994 36.6854 55.9972 35.3453L96.9132 78.511L55.8729 121.689C54.3842 120.346 53.0319 118.496 53.0319 116.283ZM66.3148 122.941C65.096 123.638 63.7529 123.99 62.3218 123.99C61.2242 123.99 60.1115 123.744 59.0625 123.323L99.2205 80.7243L113.768 96.1538L66.3148 122.941ZM133.227 85.1661L116.487 94.6166L101.306 78.511L116.448 62.4508L133.033 71.8528C135.534 73.2779 137.026 75.8186 137.026 78.6504C137.026 81.3762 135.604 83.8108 133.227 85.1661Z" fill="#ffffff" fill-rule="nonzero" opacity="1" stroke="none" vectornator:layerName="path 2"/>
</g>
</svg>
